<svg xmlns="http://www.w3.org/2000/svg" width="11.128" height="11.128" viewBox="0 0 11.128 11.128"><defs><style>.a,.b{fill:#6d6d6d;}.a{opacity:0.4;}</style></defs><path class="a" d="M13.564,8a5.564,5.564,0,1,0,5.564,5.564A5.563,5.563,0,0,0,13.564,8Zm2.95,4.947-2.76,2.76a.269.269,0,0,1-.381,0l-2.76-2.76a.269.269,0,0,1,.191-.46h5.519a.269.269,0,0,1,.191.46Z" transform="translate(-8 -8)"/><path class="b" d="M126.95,208.46l-2.76,2.76a.269.269,0,0,1-.381,0l-2.76-2.76a.269.269,0,0,1,.191-.46h5.519a.269.269,0,0,1,.191.46Z" transform="translate(-118.436 -203.513)"/></svg>