<svg xmlns="http://www.w3.org/2000/svg" width="9.968" height="9.968" viewBox="0 0 9.968 9.968"><defs><style>.a{fill:#d5d5d5;opacity:0.4;}</style></defs><g transform="translate(0)"><path class="a" d="M12.984,8a4.984,4.984,0,1,0,4.984,4.984A4.983,4.983,0,0,0,12.984,8Zm3.121,3.925-3.7,3.7a.322.322,0,0,1-.455,0l-2.09-2.09a.322.322,0,0,1,0-.455l.455-.455a.322.322,0,0,1,.455,0l1.408,1.408L15.2,11.016a.322.322,0,0,1,.455,0l.455.455A.322.322,0,0,1,16.105,11.925Z" transform="translate(-8 -8)"/></g></svg>