<svg xmlns="http://www.w3.org/2000/svg" width="46" height="55" viewBox="0 0 46 55"><defs><style>.a{fill:#f05d70;}.b{fill:#fff;}</style></defs><g transform="translate(-594 -6214)"><rect class="a" width="46" height="55" transform="translate(594 6214)"/><path class="b" d="M6.579,0V-6H5.508L3.636-1.485,1.773-6H.7V0h.747V-4.941L3.483,0h.306L5.832-4.941V0Zm4.3.108A2.932,2.932,0,0,0,13.86-3,2.932,2.932,0,0,0,10.881-6.1,2.927,2.927,0,0,0,7.9-3,2.927,2.927,0,0,0,10.881.108Zm0-.666A2.223,2.223,0,0,1,8.676-3a2.218,2.218,0,0,1,2.205-2.439A2.223,2.223,0,0,1,13.086-3,2.228,2.228,0,0,1,10.881-.558ZM20.16,0V-6h-.747v4.689L15.957-6h-.765V0h.747V-4.788L19.44,0Zm3.8,0V-5.337h1.908V-6H21.312v.666h1.9V0Zm8.064,0V-6h-.747V-3.42h-3.51V-6h-.747V0h.747V-2.754h3.51V0Z" transform="translate(634.922 6251.6) rotate(-90)"/><path class="b" d="M14.094,0V-36.018H10.152L1.134-26.73l2.7,2.754,5.778-6.1V0Z" transform="translate(594 6267)"/></g></svg>