<svg xmlns="http://www.w3.org/2000/svg" width="160.566" height="37.387" viewBox="0 0 160.566 37.387"><defs><style>.a{fill:#fff;}.b{fill:#f9c52d;}</style></defs><g transform="translate(-384.741 -406.553)"><g transform="translate(446.253 406.553)"><path class="a" d="M841.734,432.036l-4.915-7.1H831.4v7.1h-5.9V406.553h11.031a14.165,14.165,0,0,1,5.879,1.129,8.742,8.742,0,0,1,3.841,3.2A8.83,8.83,0,0,1,847.6,415.8a8.3,8.3,0,0,1-5.242,8.045l5.716,8.191Zm-1.492-19.531a6.2,6.2,0,0,0-4.041-1.147H831.4v8.883H836.2a6.126,6.126,0,0,0,4.041-1.165,4.594,4.594,0,0,0,0-6.571Z" transform="translate(-825.498 -406.553)"/><path class="a" d="M1010.38,411.977a3.083,3.083,0,0,1,0-4.514,3.6,3.6,0,0,1,2.548-.91,3.693,3.693,0,0,1,2.548.874,2.8,2.8,0,0,1,.983,2.184,3.092,3.092,0,0,1-.983,2.348,3.562,3.562,0,0,1-2.548.928A3.6,3.6,0,0,1,1010.38,411.977Zm-.291,3.069h5.679v16.99h-5.679Z" transform="translate(-983.732 -406.553)"/><path class="a" d="M1100.69,464.03V468.4h-17.474v-3.422l9.975-11.8h-9.72v-4.368h16.892v3.422l-9.975,11.8Z" transform="translate(-1047.249 -442.915)"/><path class="a" d="M1242.787,458.412H1227.97a4.61,4.61,0,0,0,1.893,2.876,6.266,6.266,0,0,0,3.713,1.056,7.508,7.508,0,0,0,2.712-.455,6.567,6.567,0,0,0,2.2-1.438l3.021,3.276q-2.767,3.167-8.082,3.167a12.776,12.776,0,0,1-5.861-1.292,9.467,9.467,0,0,1-3.932-3.586,9.874,9.874,0,0,1-1.384-5.206,10.008,10.008,0,0,1,1.365-5.188,9.561,9.561,0,0,1,3.75-3.6,11.61,11.61,0,0,1,10.539-.055,9.044,9.044,0,0,1,3.659,3.549,10.588,10.588,0,0,1,1.329,5.37Q1242.9,456.992,1242.787,458.412Zm-13.288-6.3a4.648,4.648,0,0,0-1.6,2.985h9.647a4.7,4.7,0,0,0-1.6-2.967,4.79,4.79,0,0,0-3.2-1.11A4.891,4.891,0,0,0,1229.5,452.114Z" transform="translate(-1166.884 -441.119)"/><path class="a" d="M1407.387,458.412H1392.57a4.611,4.611,0,0,0,1.893,2.876,6.267,6.267,0,0,0,3.713,1.056,7.507,7.507,0,0,0,2.712-.455,6.571,6.571,0,0,0,2.2-1.438l3.022,3.276q-2.767,3.167-8.082,3.167a12.779,12.779,0,0,1-5.861-1.292,9.468,9.468,0,0,1-3.932-3.586,9.876,9.876,0,0,1-1.384-5.206,10.009,10.009,0,0,1,1.365-5.188,9.562,9.562,0,0,1,3.75-3.6,11.61,11.61,0,0,1,10.54-.055,9.043,9.043,0,0,1,3.659,3.549,10.591,10.591,0,0,1,1.329,5.37Q1407.5,456.992,1407.387,458.412Zm-13.288-6.3a4.649,4.649,0,0,0-1.6,2.985h9.647a4.7,4.7,0,0,0-1.6-2.967,4.79,4.79,0,0,0-3.2-1.11A4.89,4.89,0,0,0,1394.1,452.114Z" transform="translate(-1308.511 -441.119)"/></g><g transform="translate(446.205 439.562)"><path class="a" d="M826.564,644.179h-1.411v-.669h3.612v.669h-1.411v3.588h-.791Z" transform="translate(-825.153 -643.449)"/><path class="a" d="M874.338,643.51v4.257h-.791v-1.824h-2.2v1.824h-.791V643.51h.791v1.757h2.2V643.51Z" transform="translate(-864.219 -643.449)"/><path class="a" d="M924.293,647.1v.663H921.1V643.51h3.107v.663h-2.317v1.106h2.056v.651h-2.056V647.1Z" transform="translate(-907.71 -643.449)"/><path class="a" d="M995.536,643.692a1.4,1.4,0,0,1,.63.523,1.6,1.6,0,0,1,0,1.615,1.4,1.4,0,0,1-.63.526,2.354,2.354,0,0,1-.964.182h-.961v1.228h-.791V643.51h1.751A2.358,2.358,0,0,1,995.536,643.692Zm-.216,1.958a.867.867,0,0,0,0-1.253,1.214,1.214,0,0,0-.784-.219h-.924v1.69h.924A1.216,1.216,0,0,0,995.32,645.651Z" transform="translate(-969.421 -643.449)"/><path class="a" d="M1042.463,647.1v.663h-3.193V643.51h3.107v.663h-2.317v1.106h2.055v.651h-2.055V647.1Z" transform="translate(-1009.388 -643.449)"/><path class="a" d="M1086.5,647.767l-.869-1.247a1.643,1.643,0,0,1-.164.006h-.961v1.241h-.791V643.51h1.751a2.359,2.359,0,0,1,.964.182,1.4,1.4,0,0,1,.63.523,1.463,1.463,0,0,1,.219.809,1.445,1.445,0,0,1-.234.827,1.4,1.4,0,0,1-.672.517l.979,1.4Zm-.286-3.369a1.214,1.214,0,0,0-.784-.219h-.924v1.7h.924a1.2,1.2,0,0,0,.784-.222.771.771,0,0,0,.268-.629A.763.763,0,0,0,1086.213,644.4Z" transform="translate(-1047.629 -643.449)"/><path class="a" d="M1131.607,644.173v1.295h2.056v.669h-2.056v1.63h-.791V643.51h3.107v.663Z" transform="translate(-1088.159 -643.449)"/><path class="a" d="M1177.015,647.1v.663h-3.193V643.51h3.107v.663h-2.317v1.106h2.055v.651h-2.055V647.1Z" transform="translate(-1125.162 -643.449)"/><path class="a" d="M1217.067,647.17a2.084,2.084,0,0,1-.815-.781,2.282,2.282,0,0,1,0-2.25,2.1,2.1,0,0,1,.818-.781,2.4,2.4,0,0,1,1.164-.283,2.435,2.435,0,0,1,.955.182,1.954,1.954,0,0,1,.73.529l-.511.481a1.49,1.49,0,0,0-1.137-.5,1.594,1.594,0,0,0-.785.192,1.378,1.378,0,0,0-.541.532,1.631,1.631,0,0,0,0,1.545,1.377,1.377,0,0,0,.541.532,1.6,1.6,0,0,0,.785.192,1.482,1.482,0,0,0,1.137-.5l.511.486a1.938,1.938,0,0,1-.733.529,2.448,2.448,0,0,1-.957.183A2.4,2.4,0,0,1,1217.067,647.17Z" transform="translate(-1161.417 -643.074)"/><path class="a" d="M1262.206,644.179H1260.8v-.669h3.612v.669H1263v3.588h-.791Z" transform="translate(-1199.997 -643.449)"/><path class="a" d="M1334.5,645.215h.748v1.7a2.377,2.377,0,0,1-.766.4,2.943,2.943,0,0,1-.9.14,2.426,2.426,0,0,1-1.174-.283,2.1,2.1,0,0,1-.821-.781,2.272,2.272,0,0,1,0-2.25,2.093,2.093,0,0,1,.824-.781,2.457,2.457,0,0,1,1.183-.283,2.588,2.588,0,0,1,.973.176,1.91,1.91,0,0,1,.736.517l-.5.486a1.6,1.6,0,0,0-1.174-.486,1.657,1.657,0,0,0-.8.189,1.37,1.37,0,0,0-.547.529,1.521,1.521,0,0,0-.2.778,1.5,1.5,0,0,0,.2.766,1.41,1.41,0,0,0,.547.535,1.6,1.6,0,0,0,.794.195,1.713,1.713,0,0,0,.875-.219Z" transform="translate(-1260.657 -643.074)"/><path class="a" d="M1382.594,647.332a1.929,1.929,0,0,1-.492-1.42v-2.4h.79v2.371q0,1.253,1.083,1.253t1.076-1.253V643.51h.779v2.4a1.936,1.936,0,0,1-.49,1.42,2.149,2.149,0,0,1-2.745,0Z" transform="translate(-1304.374 -643.449)"/><path class="a" d="M1431.991,643.51h.79v4.257h-.79Z" transform="translate(-1347.301 -643.449)"/><path class="a" d="M1461.141,643.51H1463a2.67,2.67,0,0,1,1.21.265,1.958,1.958,0,0,1,.821.748,2.278,2.278,0,0,1,0,2.232,1.958,1.958,0,0,1-.821.748,2.67,2.67,0,0,1-1.21.265h-1.861Zm1.824,3.588a1.811,1.811,0,0,0,.824-.179,1.287,1.287,0,0,0,.547-.511,1.641,1.641,0,0,0,0-1.538,1.286,1.286,0,0,0-.547-.511,1.8,1.8,0,0,0-.824-.18h-1.034V647.1Z" transform="translate(-1372.383 -643.449)"/><path class="a" d="M1515.575,647.1v.663h-3.193V643.51h3.107v.663h-2.317v1.106h2.055v.651h-2.055V647.1Z" transform="translate(-1416.473 -643.449)"/></g><g transform="translate(384.741 406.95)"><path class="a" d="M384.741,446.328,400.7,418.892h-6.886l5.634-9.494h13.041l20.24,36.929H422.091l-13.354-22.636L395.8,446.328Z" transform="translate(-384.741 -409.399)"/><path class="b" d="M601.982,409.4H624l-11.009,19.246Z" transform="translate(-571.664 -409.399)"/></g></g></svg>