<svg xmlns="http://www.w3.org/2000/svg" width="46" height="56" viewBox="0 0 46 56"><defs><style>.a{fill:#00c596;}.b{fill:#fff;}</style></defs><g transform="translate(-916 -6220)"><rect class="a" width="46" height="56" transform="translate(916 6220)"/><path class="b" d="M6.579,0V-6H5.508L3.636-1.485,1.773-6H.7V0h.747V-4.941L3.483,0h.306L5.832-4.941V0Zm4.3.108A2.932,2.932,0,0,0,13.86-3,2.932,2.932,0,0,0,10.881-6.1,2.927,2.927,0,0,0,7.9-3,2.927,2.927,0,0,0,10.881.108Zm0-.666A2.223,2.223,0,0,1,8.676-3a2.218,2.218,0,0,1,2.205-2.439A2.223,2.223,0,0,1,13.086-3,2.228,2.228,0,0,1,10.881-.558ZM20.16,0V-6h-.747v4.689L15.957-6h-.765V0h.747V-4.788L19.44,0Zm3.8,0V-5.337h1.908V-6H21.312v.666h1.9V0Zm8.064,0V-6h-.747V-3.42h-3.51V-6h-.747V0h.747V-2.754h3.51V0Zm3.51.108c1.62,0,2.214-.891,2.214-1.764,0-2.241-3.555-1.467-3.555-2.817,0-.567.513-.954,1.233-.954a2.3,2.3,0,0,1,1.737.72l.45-.549a2.822,2.822,0,0,0-2.133-.837c-1.179,0-2.061.675-2.061,1.665,0,2.142,3.555,1.287,3.555,2.835,0,.459-.342,1.035-1.413,1.035a2.537,2.537,0,0,1-1.89-.855l-.441.567A2.973,2.973,0,0,0,35.532.108Z" transform="translate(957.389 6263.52) rotate(-90)"/><path class="b" d="M14.364.648C22.3.648,27.108-3.726,27.108-9.72c0-5.778-5.022-8.586-8.316-8.856,3.4-.594,7.776-3.186,7.776-8.37,0-6.1-5.292-9.612-12.2-9.612A15.6,15.6,0,0,0,2.052-31l2.484,2.808a12.2,12.2,0,0,1,9.5-4.374c4.374,0,8.046,2.16,8.046,6.156,0,4.158-3.834,5.94-8.37,5.94-1.458,0-3.132,0-3.726-.054v4.1c.54-.054,2.214-.054,3.726-.054,5.292,0,8.964,1.89,8.964,6.372,0,4.158-3.186,6.75-8.424,6.75A12.509,12.509,0,0,1,4.212-8.1L1.566-5.292C3.78-2.052,8.262.648,14.364.648Z" transform="translate(916 6273)"/></g></svg>